<svg xmlns="http://www.w3.org/2000/svg" width="1em" height="1em" fill="none" viewBox="0 0 24 24"><g clip-path="url(#CFXsToken_svg__a)"><rect width="24" height="24" fill="#181818" rx="12"></rect><path fill="url(#CFXsToken_svg__b)" fill-rule="evenodd" d="M19.398 7.216c0-.352-.097-.601-.197-.767s-.167-.234-.2-.266c-.196-.197-.451-.31-.661-.404q-.114-.049-.203-.095c-.552-.293-.883-.687-.905-.714l-.001-.002h-.002c-.01-.012-.094-.097-.157-.349-.039-.157-.043-.274-.046-.363q-.002-.06-.007-.105c-.013-.097-.113-.197-.28-.13-.14.07-.136.247-.133.401v.064c0 .11.067.5.333.798l.064.073c.207.235.255.29.801.593.15.083.282.147.394.201.13.063.232.113.305.165l.067.047c.21.143.412.281.412.848q0 .203-.066.384a.83.83 0 0 0-.524-.184.82.82 0 0 0-.518.18V7.59a.78.78 0 0 1-.805.067v.001a1.6 1.6 0 0 0-.38-.109 1.36 1.36 0 0 0-.305-.608l-.01-.013-.011-.012a1.4 1.4 0 0 0-.359-.283 1.37 1.37 0 0 0-.96-.138q-.063.014-.12.032-.095.03-.183.072a2.198 2.198 0 0 0-2.025-.663c.52.105.965.418 1.244.849q-.21.05-.434.05c-.48 0-1.174-.4-1.443-.554q-.086-.05-.107-.06a3.3 3.3 0 0 0-1.026-.308 4 4 0 0 0-.18-.02.76.76 0 0 1-.363-.133.78.78 0 0 1-.315-.84l.004-.014a.21.21 0 0 0-.108-.234.212.212 0 0 0-.295.105 1 1 0 0 0-.052.129q-.06.181-.06.38a1 1 0 0 0 .003.094 1.2 1.2 0 0 0 .246.643q-.133.026-.273.026h-.02a1.3 1.3 0 0 1-.234-.023 1.4 1.4 0 0 1-.731-.387 1.39 1.39 0 0 1-.406-.981v-.015a.238.238 0 0 0-.475-.008q-.007.082-.007.166a1.91 1.91 0 0 0 .935 1.648 1.9 1.9 0 0 0 1.224.257l.037-.005.02-.003a3 3 0 0 1 .935.009 3 3 0 0 1 1.18.464l.019.013a3 3 0 0 0 2.117.472q.055-.008.109-.018a3 3 0 0 0 .776-.256.5.5 0 0 1 .213-.053l.024-.001a.55.55 0 0 1 .487.296l.007.013.01.02q.044.102.045.22a.547.547 0 0 1-.834.469.55.55 0 0 1-.216-.247 3 3 0 0 1-.554.185q-.065.016-.131.027l-.074.013a3 3 0 0 1-.479.038 3 3 0 0 1-.494-.04 3 3 0 0 1-1.051-.383 4.262 4.262 0 0 0-1.876-.59 4.5 4.5 0 0 0-.95.032 4.3 4.3 0 0 0-1.088.305l.006-.007a2.2 2.2 0 0 1-.729.122h-.007a2.23 2.23 0 0 1-1.366-.47q.034.079.07.154l.008.014a2.25 2.25 0 0 0 1.44 1.15h.001q.043.011.086.02.225.05.466.05c.42 0 .812-.116 1.147-.316l.005-.003.002-.001.015-.01q.06-.036.123-.069c.31-.166.655-.274 1.021-.312h.001l.033-.003a3 3 0 0 1 .527.001c.507.049.975.233 1.366.516a4.97 4.97 0 0 0-3.941 1.074h-.001a5 5 0 0 0-.306.272v.001c-.048.037-.15.15-.212.217l-.01.012a5 5 0 0 0-.38.467l-.052.073a5.2 5.2 0 0 0-.843 2.028 5.3 5.3 0 0 0-.087.934v.01l.001.118a5.3 5.3 0 0 0 .101.937q.07.347.181.674l.003.02a.066.066 0 0 1-.066.066.07.07 0 0 1-.06-.04l-.002-.003-.001-.003v-.001a2 2 0 0 0-.13-.283 2.3 2.3 0 0 1-.308-1.002 2 2 0 0 1-.006-.177 2.2 2.2 0 0 0-.29.512 2.14 2.14 0 0 0-.043 1.466l.009.027a2.67 2.67 0 0 1-.079 1.848 1.99 1.99 0 0 0 .96-1.529v-.002l.001-.013a.066.066 0 0 1 .131.006q.007.092.021.183.058.415.202.797a3.8 3.8 0 0 0 1.872 2.076 1.51 1.51 0 0 1-.252-1.357q.041-.139.106-.266l-.002.098q0 .126.015.248a1.92 1.92 0 0 0 .953 1.42 4.2 4.2 0 0 0 .856.378c.4.126.825.193 1.266.193a4.2 4.2 0 0 0 3.168-1.43l.002-.002a2.73 2.73 0 0 0 .658-2.041l-.003-.034a2.7 2.7 0 0 0-.216-.822l-.004-.008a2.744 2.744 0 0 0-.912-1.122l-.05-.035-.053-.035a2.7 2.7 0 0 0-1.077-.411h-.004l-.006-.002a3 3 0 0 0-.293-.027l-.02-.001-.095-.002q-.204 0-.4.029l-.018.003-.097.017-.008-.002h-.007l-.055.005h-.005l-.037.003a3 3 0 0 1-.489-.003l-.021-.002a2.8 2.8 0 0 1-1.056-.323 2.6 2.6 0 0 1-.542-.4 2.3 2.3 0 0 1-.525-.774l-.036-.098a2 2 0 0 1-.07-.261l-.021.005.008-.005.005-.004.006-.003a2 2 0 0 1 .104-1.138 2 2 0 0 1 .126-.264 2.2 2.2 0 0 1 .327-.443q.143-.154.316-.282a2.6 2.6 0 0 1 .509-.296 2.7 2.7 0 0 1 .55-.176 2.9 2.9 0 0 1 1.12-.01h.002l.02.005c.05.013.088.057.094.11v.014c0 .067-.05.121-.115.128a2.6 2.6 0 0 0-.667.142q-.285.103-.528.264a2.2 2.2 0 0 0-.346.28 2.1 2.1 0 0 0-.501.77q-.08.217-.106.452l.006.005-.007.002a2 2 0 0 0-.008.308l.004.06a2 2 0 0 0 .085.423q.014.049.033.095l.016.041a2 2 0 0 0 .05.114 3 3 0 0 1 .226-.446l.009-.015a3 3 0 0 1 .175-.245l-.015-.002.034-.02a2.7 2.7 0 0 1 .401-.4 2.721 2.721 0 0 1 .659-.394 3 3 0 0 1 .285-.102 2.7 2.7 0 0 1 .638-.108l-.001-.003h.073q.09-.001.18-.007l.06-.004h.002a3.9 3.9 0 0 0 1.163-.268 4 4 0 0 1-.486.535 4 4 0 0 1-1.056.697l-.004.002-.012.005a3.4 3.4 0 0 1-.458.172 4 4 0 0 1-.83.157l-.065.005q-.09.007-.18.008l.157.064.002.001.016.004.036.01.033.009q.114.033.222.08l.002.001a4 4 0 0 0 .724.136l.002-.002q.003 0 .005.002a3.8 3.8 0 0 0 .97-.036l.04-.006.014-.003c.102-.018.442-.106.512-.128a4 4 0 0 0 .377-.146 4 4 0 0 0 .668-.383l.01-.006a3.8 3.8 0 0 0 .726-.68l.032-.04a.55.55 0 0 1 .039.917 2.6 2.6 0 0 0-.405.36 2.6 2.6 0 0 0-.657 1.366q.21-.201.453-.363c.102-.067.21-.123.32-.178q.076-.038.151-.08c.22-.118.664-.21.705-.219q.3-.052.576-.156a3.2 3.2 0 0 0 1.29-.897v-.001l.005-.005.004-.005.01-.01a.4.4 0 0 0 .087-.25.4.4 0 0 0-.164-.32.604.604 0 0 0-.422-.954.63.63 0 0 1 .09.747.6.6 0 0 1-.1.133l-.002.001-.002.002-.001.002a.183.183 0 0 1-.307-.168.705.705 0 0 0-.298-.67.7.7 0 0 0-.246-.11l-.023.02a1 1 0 0 1 .073.372 1 1 0 0 1-.063.346 3.8 3.8 0 0 0-.736-.59 3.83 3.83 0 0 0-2.148-.57h-.01a.396.396 0 0 1-.003-.791h.103l.67.006.003-.004.001-.002.033.006h.005l.234.003.12.002.122.002h.078c.037 0 .103.002.14.004h.045a88 88 0 0 1 .952.021l.107.003.17.005a1.6 1.6 0 0 1-.093.566q-.013.04-.03.08a2 2 0 0 0 .347-.236q.203-.172.353-.392c.02-.024.024-.026.026-.027s.003-.003.015-.02l.025-.038c.053-.084.09-.142.199-.137a.2.2 0 0 1 .189.2v.003l-.002.02v.015a1.7 1.7 0 0 1-.145.602 1.67 1.67 0 0 0 .855-.885.84.84 0 0 0 .397-1.002c.133-.227.21-.49.21-.772m-8.465 12.456h-.003zm-.12-4.567.003.013-.008-.007.003-.004zm-1.023.509c.1.114.192.183.192.183.002 0 .027.018.059.043a1.478 1.478 0 0 0 .307.196q.14.07.292.117a1.9 1.9 0 0 0 .727.079l.019-.002q.101-.01.199-.029a2 2 0 0 1-.331-.287 2 2 0 0 1-.1-.118l-.018-.024a2 2 0 0 1-.102-.149 1.9 1.9 0 0 1-.218-.504l.038.034a2 2 0 0 0 .436.297l.005-.003.015-.012-.013.019.006.003c.114.055.217.106.38.14.141.027.306.032.56.038l.148.004a1.4 1.4 0 0 1 .282.034 1.185 1.185 0 0 1 .9 1.147c0 .27-.091.52-.245.719-.168.22-.411.378-.692.437v.011h-.001q-.075.007-.152.011l-.031.002h-.003l-.167.006a4.96 4.96 0 0 1-3.256-1.136l-.028-.023a5.1 5.1 0 0 1-1.29-1.614 5.2 5.2 0 0 1-.422-1.128l-.022-.094-.002-.009-.018-.082-.016-.09a2.4 2.4 0 0 1 .048-.98c.121-.464.378-.872.726-1.18L8 11.663h.002l.01-.002h.001l.015-.013.024-.02q.124-.106.264-.193a2.7 2.7 0 0 0-.253.399 2.7 2.7 0 0 0-.308 1.247v.018q0 .105.007.207.004.046.009.091a2.6 2.6 0 0 0 .21.794c.236.547.645 1 1.159 1.294a2.74 2.74 0 0 1-.093-1.4c.012.02.086.225.122.326l.02.054.027.072c.102.277.267.725.574 1.077m1.177-3.515h-.002zm.3-.498V11.6h.003zm7.115 1.146a3.2 3.2 0 0 1-.137.696v.001a3.2 3.2 0 0 1-.453.905 3.18 3.18 0 0 0-.606 1.877 3.2 3.2 0 0 0 .094.773 2.605 2.605 0 0 1-.689-1.628v-.001l.005-.01-.005.004-.004-.136a2.6 2.6 0 0 1 .58-1.64l.02-.026a2.6 2.6 0 0 1 1.194-.815m-1.837 1.335c.094-.156.154-.335.171-.526a1.22 1.22 0 0 0-.92.593 1.2 1.2 0 0 0-.169.523 1.2 1.2 0 0 0 .325-.083c.249-.1.457-.28.593-.507M8.199 9.12a2.467 2.467 0 0 0-.885.656 2 2 0 0 0-.142.182 1.975 1.975 0 0 1-2.57.494 2.06 2.06 0 0 0 1.137-.64 2.43 2.43 0 0 1 1.372-.752 2.4 2.4 0 0 1 .381-.035h.074q.33.007.633.095m-2.116 2.824c.099-.38.263-.734.48-1.048a3.34 3.34 0 0 0-1.17 1.67 3.3 3.3 0 0 0-.143.791v.004a1.86 1.86 0 0 1-.5 1.14 2 2 0 0 1-.126.123q.117-.02.232-.052a1.9 1.9 0 0 0 .66-.343 1.9 1.9 0 0 0 .443-.498q.058-.093.104-.192a3.344 3.344 0 0 1 .02-1.595" clip-rule="evenodd"></path></g><defs><linearGradient id="CFXsToken_svg__b" x1="4.602" x2="19.195" y1="12" y2="11.98" gradientUnits="userSpaceOnUse"><stop stop-color="#95765C"></stop><stop offset="1" stop-color="#DDBA8E"></stop></linearGradient><clipPath id="CFXsToken_svg__a"><path fill="#fff" d="M0 0h24v24H0z"></path></clipPath></defs></svg>