<svg xmlns="http://www.w3.org/2000/svg" width="24" height="24" fill="none"><path fill="#17B38A" fill-rule="evenodd" d="M10.286.99a3.43 3.43 0 0 1 3.429 0l6.964 4.02a3.43 3.43 0 0 1 1.714 2.97v8.04a3.43 3.43 0 0 1-1.714 2.97l-6.964 4.02a3.43 3.43 0 0 1-3.429 0l-6.963-4.02a3.43 3.43 0 0 1-1.715-2.97V7.98c0-1.225.654-2.357 1.715-2.97z" clip-rule="evenodd"></path><path fill="#fff" fill-rule="evenodd" d="m7.354 15.145 4.441 4.442 4.47-4.47-1.481-1.482-2.971 2.972-1.478-1.478 2.971-2.97-1.482-1.484z" clip-rule="evenodd"></path><path fill="#fff" fill-rule="evenodd" d="m11.846 4.695-5.959 5.96.02 2.95 5.912-5.911 5.936 5.936.01-3.016z" clip-rule="evenodd"></path></svg>