<svg xmlns="http://www.w3.org/2000/svg" width="213" height="40" fill="none"><path fill="#AD8D65" fill-rule="evenodd" d="M48.649 32.21q2.272 1.262 4.975 1.262 2.499 0 4.242-.808 1.743-.833 3.334-2.55.075-.102.302 0 .228.1.38.227l.302-.379-3.762-3.156-.328.353q.126.076.227.253.126.15.126.277l-.05.101q-.986 1.086-2.096 1.642-1.112.53-2.677.53a6.23 6.23 0 0 1-3.132-.833 6.47 6.47 0 0 1-2.348-2.273 6.14 6.14 0 0 1-.884-3.232q0-1.844.833-3.334a6.03 6.03 0 0 1 2.273-2.323 6.05 6.05 0 0 1 3.157-.858q1.641 0 2.777.555 1.162.531 2.223 1.566.1.075 0 .252a.65.65 0 0 1-.228.253l.303.379 3.485-2.753-.303-.379q-.378.228-.53.228-.101 0-.151-.05-1.566-1.617-3.334-2.5-1.742-.91-4.293-.91-2.651 0-4.873 1.237-2.222 1.213-3.536 3.46-1.313 2.247-1.313 5.177 0 2.778 1.313 5.05a9.5 9.5 0 0 0 3.586 3.536m27.718-18.46v4.04h-.48a.9.9 0 0 0-.075-.353q-.075-.177-.202-.177h-8.182v4.47h6.616q.127 0 .202-.177a.9.9 0 0 0 .076-.354h.48v4.04h-.48a.9.9 0 0 0-.076-.353q-.075-.176-.202-.176h-6.616v7.752q0 .127.177.202.202.075.404.076v.48h-4.445v-.48q.202 0 .38-.076.201-.075.201-.202V15.038q0-.127-.202-.202a.9.9 0 0 0-.353-.076v-.48h12.02q.126 0 .202-.176a.9.9 0 0 0 .076-.354zm75.19 19.874q-2.93 0-5.253-1.339-2.298-1.363-3.586-3.585-1.262-2.248-1.262-4.748 0-2.526 1.212-4.849 1.212-2.347 3.51-3.813 2.298-1.464 5.379-1.464 3.005 0 5.277 1.389a9.35 9.35 0 0 1 3.485 3.712q1.212 2.298 1.212 5.025 0 2.424-1.212 4.672-1.186 2.222-3.459 3.61-2.273 1.39-5.303 1.39m.025-3.334q1.894 0 3.384-.782a5.8 5.8 0 0 0 2.348-2.248q.86-1.464.859-3.308 0-1.944-.808-3.485a5.97 5.97 0 0 0-2.323-2.424q-1.516-.91-3.586-.91-1.895 0-3.384.91a6.2 6.2 0 0 0-2.298 2.45q-.834 1.564-.833 3.459 0 1.97.959 3.41a6.54 6.54 0 0 0 2.5 2.196 7.3 7.3 0 0 0 3.182.732m27.411 2.45q-.582 0-.682-.177l-4.571-7.576q1.894-.454 3.081-1.793 1.212-1.338 1.212-3.535 0-2.373-1.717-3.864-1.692-1.515-5.025-1.515h-7.702v.48q.176 0 .353.076.202.075.202.202v17.424q0 .127-.202.202a1.1 1.1 0 0 1-.379.076v.48h4.546v-.48q-.177 0-.379-.076-.202-.075-.202-.202v-7.247h2.601l4.242 7.146q.101.126-.025.253-.126.126-.48.126v.48h5.127zm-11.465-10.58v-4.95h4.217q1.288 0 2.172.732.884.707.884 1.717 0 1.036-.783 1.768t-2.349.732zm26.002 7.449v4.141h-.48q0-.151-.076-.354-.076-.176-.202-.176h-11.995v-.48a.9.9 0 0 0 .354-.076q.202-.075.202-.202V15.038q0-.127-.202-.202a1.1 1.1 0 0 0-.379-.076v-.48h4.545v.48q-.176 0-.378.076-.202.075-.202.202v15.1h8.055q.126 0 .202-.176.076-.202.076-.353zm9.14-15.329q2.828 0 4.924 1.162 2.096 1.136 3.232 3.308 1.162 2.172 1.162 5.151 0 2.854-1.238 4.975-1.212 2.096-3.409 3.233-2.171 1.11-4.974 1.11h-6.819v-.48a.9.9 0 0 0 .354-.075q.202-.075.202-.202V15.038q0-.127-.202-.202a.9.9 0 0 0-.354-.076v-.48zm-.783 15.96q2.196 0 3.737-.783 1.566-.809 2.349-2.247.808-1.44.808-3.359 0-3.005-1.616-4.798t-4.975-1.793h-2.778v12.98zm-76.315 2.348q-.278-.176-.152-.606l3.031-12.752 2.752 12.752q.1.43-.202.606a1.15 1.15 0 0 1-.556.152v.48h5.506v-.48q-.228 0-.48-.101-.228-.126-.228-.43 0-.125.026-.201l4.671-16.995q.076-.253.506-.253v-.48h-5.379v.48q.328 0 .606.177.303.177.252.328l-2.474 12.298-2.879-12.045q-.126-.43.177-.581.303-.177.606-.177v-.48h-6.011v.48q.254 0 .531.126a.44.44 0 0 1 .278.43.7.7 0 0 1-.026.202l-2.929 12.651-3.157-12.904q-.024-.177.127-.328.151-.177.454-.177v-.48h-4.924v.48q.454 0 .505.253l4.748 16.995q.025.075.025.202 0 .303-.253.429a1.3 1.3 0 0 1-.48.1v.48h5.935v-.48q-.303 0-.606-.15m-22.537 1.01a6.2 6.2 0 0 1-2.5-.53q-1.186-.53-2.399-1.515a.17.17 0 0 0-.126-.05q-.202 0-.43.227l-.353-.303 2.525-2.879.354.328a1.3 1.3 0 0 0-.177.303q-.05.176.05.278.834.758 1.541 1.136.732.354 1.515.354 1.945 0 1.945-1.288 0-.58-.606-.884-.582-.328-1.97-.707-1.792-.48-2.601-1.237-.808-.784-.808-2.121 0-1.592 1.035-2.576 1.035-1.01 2.828-1.01.91 0 1.642.277.732.279 1.768.985.024.026.101.026a.5.5 0 0 0 .252-.076.6.6 0 0 0 .177-.152l.379.329-2.273 2.575-.354-.303a.45.45 0 0 0 .127-.252q.05-.176-.051-.278a3.9 3.9 0 0 0-.884-.53 2.2 2.2 0 0 0-.909-.177q-.53 0-.833.202-.303.203-.303.606 0 .329.177.53.176.203.631.404.48.202 1.439.505 1.769.53 2.778 1.49 1.01.935 1.01 2.324 0 2.045-1.288 3.03-1.288.96-3.409.96M96.422 14.76h.303v-.48h-5.581v.48q.48 0 .48.202a.4.4 0 0 1-.05.126l-4.824 6.187-4.9-6.212a.8.8 0 0 1-.125-.202q0-.1.303-.1v-.48h-4.9v.48h.329q.328 0 .43.125l6.565 9.016-6.566 8.712q-.126.126-.58.126h-.177v.48h5.58v-.48q-.227 0-.378-.05-.127-.077-.127-.152 0-.026.05-.126l4.47-5.808 4.445 5.808q.1.15.101.202 0 .126-.303.126v.48h5.354v-.48h-.354q-.303 0-.404-.126L88.922 23.7l7.02-8.839q.075-.1.48-.1" clip-rule="evenodd"></path><path fill="url(#logo_svg__a)" fill-rule="evenodd" d="M37.169 8.042c0-.88-.244-1.503-.495-1.918-.25-.416-.42-.585-.501-.666-.493-.49-1.135-.774-1.663-1.009-.188-.083-.362-.16-.51-.238-1.386-.73-2.216-1.716-2.273-1.784l-.003-.003-.003-.003c-.028-.029-.236-.24-.395-.87-.098-.394-.108-.685-.116-.908-.004-.1-.007-.187-.017-.262-.034-.244-.284-.493-.702-.327-.353.175-.344.617-.337 1.004l.003.16c0 .276.167 1.247.835 1.995l.161.182c.52.587.639.722 2.012 1.481.378.21.709.369.99.504.325.157.582.281.764.411l.17.117c.53.36 1.035.704 1.035 2.122a2.8 2.8 0 0 1-.167.958c-.2-.16-.43-.283-.68-.36a2.1 2.1 0 0 0-1.21-.02 2.1 2.1 0 0 0-.727.37v-.003a1.95 1.95 0 0 1-1.152.371 1.95 1.95 0 0 1-.87-.203v.004a4 4 0 0 0-.955-.273 3.4 3.4 0 0 0-.765-1.52l-.027-.031-.019-.022-.008-.01a3.6 3.6 0 0 0-.9-.706 3.46 3.46 0 0 0-2.414-.346q-.155.035-.301.08-.237.075-.458.18-.14-.15-.29-.287a5.54 5.54 0 0 0-3.763-1.466q-.532 0-1.035.096a4.88 4.88 0 0 1 3.124 2.122 4.8 4.8 0 0 1-1.09.125c-1.205 0-2.949-.999-3.623-1.385-.142-.081-.237-.136-.268-.147a8 8 0 0 0-1.036-.419 8.4 8.4 0 0 0-1.541-.353 9 9 0 0 0-.455-.05 2 2 0 0 1-.556-.14 1.948 1.948 0 0 1-1.135-2.327.532.532 0 0 0-.522-.648.53.53 0 0 0-.492.325 3 3 0 0 0-.13.322c-.099.3-.153.62-.153.952a2 2 0 0 0 .01.232v.002a3 3 0 0 0 .617 1.606 3.6 3.6 0 0 1-.684.066h-.05a3.4 3.4 0 0 1-.589-.058 3.49 3.49 0 0 1-2.856-3.42V1.61a.596.596 0 0 0-1.192-.021A4.77 4.77 0 0 0 9.01 5.246a4.84 4.84 0 0 0 2.752 1.492 4.8 4.8 0 0 0 1.403.03h.001l.093-.012.052-.008a7.5 7.5 0 0 1 1.106-.08 7.63 7.63 0 0 1 4.205 1.26l.011.008.025.017.012.008a7.6 7.6 0 0 0 4.205 1.26 7.66 7.66 0 0 0 3.335-.764 1.4 1.4 0 0 1 .535-.134l.063-.002a1.38 1.38 0 0 1 1.263.823q.113.254.115.55c0 .462-.23.871-.583 1.12a1.35 1.35 0 0 1-.795.251 1.38 1.38 0 0 1-1.261-.817 7.5 7.5 0 0 1-1.39.465 7 7 0 0 1-.33.067l-.108.019q-.038.008-.077.012a7.698 7.698 0 0 1-2.444-.006 7.6 7.6 0 0 1-2.64-.957 10.743 10.743 0 0 0-2.478-1.07 10.9 10.9 0 0 0-3.785-.41q-.423.027-.836.087a10.8 10.8 0 0 0-2.733.762L8.74 9.2a5.6 5.6 0 0 1-1.83.304h-.018A5.6 5.6 0 0 1 3.46 8.327q.082.198.177.387l.009.018.009.017a5.64 5.64 0 0 0 3.62 2.876q.107.027.216.05c.377.08.77.122 1.171.122a5.6 5.6 0 0 0 2.88-.789h.002l.005-.003.003-.002.002-.001.005-.004.003-.001.035-.02v-.001q.15-.093.309-.175a7 7 0 0 1 2.567-.78h.001l.082-.008a7.2 7.2 0 0 1 1.325.004 7 7 0 0 1 3.431 1.29 12.55 12.55 0 0 0-7.29 1.034 12.4 12.4 0 0 0-1.725.988q-.457.31-.885.661H9.41q-.398.327-.768.682 0 .001-.002.002c-.118.091-.377.374-.53.541l-.028.03a13 13 0 0 0-.953 1.167l-.13.183a13 13 0 0 0-2.118 5.07v.001q-.21 1.137-.219 2.333v.027l.003.294a13 13 0 0 0 .254 2.342q.172.867.454 1.685a.164.164 0 0 1-.075.191.167.167 0 0 1-.239-.086l-.002-.007v-.002a5 5 0 0 0-.326-.707 5.75 5.75 0 0 1-.774-2.504v-.002a6 6 0 0 1-.015-.44q-.076.096-.144.197-.361.515-.586 1.083a5.3 5.3 0 0 0-.36 2.43q.053.629.253 1.235l.022.066a6.64 6.64 0 0 1-.197 4.62q.52-.309.968-.753a4.914 4.914 0 0 0 1.443-3.07v-.004q0-.018.003-.034a.166.166 0 0 1 .329.017q.019.23.053.456c.095.69.267 1.358.506 1.993a9.54 9.54 0 0 0 4.702 5.19 3.77 3.77 0 0 1-.79-2.314 3.8 3.8 0 0 1 .425-1.743q-.007.12-.007.244 0 .315.04.619a4.8 4.8 0 0 0 2.392 3.55 10.5 10.5 0 0 0 2.15.945h.001a10.6 10.6 0 0 0 3.18.483 10.6 10.6 0 0 0 7.958-3.574l.005-.006a6.8 6.8 0 0 0 1.653-5.102l-.008-.085a6.7 6.7 0 0 0-.243-1.238 6.5 6.5 0 0 0-.486-1.206 6.9 6.9 0 0 0-2.115-2.435q-.062-.044-.125-.087l-.132-.088a6.8 6.8 0 0 0-1.227-.63 7 7 0 0 0-1.478-.398l-.008-.001h-.004l-.014-.002a6.5 6.5 0 0 0-1.026-.076 7 7 0 0 0-1.028.076l-.022.003a6 6 0 0 0-.244.042l-.037-.006q-.07.008-.139.015l-.013.001-.092.007a7 7 0 0 1-1.227-.008l-.053-.005a7 7 0 0 1-2.653-.809 6.4 6.4 0 0 1-1.362-.997 5.7 5.7 0 0 1-.901-1.111 5 5 0 0 1-.417-.825 5.092 5.092 0 0 1-.268-.899l-.026.007-.025.007.02-.013.007-.005.011-.008.01-.005a5 5 0 0 1-.096-.976 5.04 5.04 0 0 1 .526-2.25 5.2 5.2 0 0 1 .574-.925 6.02 6.02 0 0 1 1.188-1.166 6.5 6.5 0 0 1 1.278-.74 7 7 0 0 1 1.381-.439 7.2 7.2 0 0 1 2.817-.023h.003q.024.004.049.01a.322.322 0 0 1-.052.631 6.5 6.5 0 0 0-1.674.355q-.717.257-1.327.66h-.001a5.5 5.5 0 0 0-.605.457 5.301 5.301 0 0 0-1.208 1.477 4.9 4.9 0 0 0-.581 1.82l.015.012-.01.004-.007.002a4.7 4.7 0 0 0 .035 1.278 5 5 0 0 0 .168.7q.039.12.082.237h.001l.04.102a4 4 0 0 0 .126.284 7 7 0 0 1 .567-1.115l.022-.036h.001a7 7 0 0 1 .44-.613l-.037-.004.084-.053a7 7 0 0 1 .676-.71q.161-.15.333-.286.224-.18.464-.342h.002a7 7 0 0 1 1.188-.644l.173-.07a6.8 6.8 0 0 1 1.911-.44q.117-.012.234-.017l-.002-.006h.183a9 9 0 0 0 .605-.028h.004a9.8 9.8 0 0 0 2.557-.534q.185-.065.363-.135a10 10 0 0 1-3.872 3.08l-.04.017q-.19.085-.384.161a9.9 9.9 0 0 1-2.851.662h-.001l-.119.01-.045.002q-.225.015-.451.02a9 9 0 0 0 .393.16l.008.002.038.009a4 4 0 0 1 .174.047 5 5 0 0 1 .563.204 9.6 9.6 0 0 0 1.82.338l.005-.004.01.006a9.5 9.5 0 0 0 1.295.029q.582-.025 1.144-.12l.101-.015.034-.006c.254-.046 1.11-.264 1.284-.321a9 9 0 0 0 .95-.363 9.6 9.6 0 0 0 1.677-.958l.023-.017q.58-.412 1.091-.909a10 10 0 0 0 .816-.89 1.37 1.37 0 0 1 .574 1.68c-.097.247-.264.46-.478.612a6.5 6.5 0 0 0-1.018.898 6.6 6.6 0 0 0-1.11 1.651 6.5 6.5 0 0 0-.54 1.766q.527-.504 1.14-.907c.255-.168.528-.307.802-.446q.192-.097.38-.198c.55-.297 1.667-.529 1.771-.548h.001a8.022 8.022 0 0 0 4.315-2.238 8 8 0 0 0 .37-.395v-.002l.003-.002.02-.023.002-.002.01-.013h.002l.01-.012a.98.98 0 0 0 .22-.621.99.99 0 0 0-.41-.801 1.5 1.5 0 0 0 .288-.885c0-.777-.59-1.417-1.349-1.5.267.284.43.666.43 1.085a1.57 1.57 0 0 1-.458 1.115l-.011.011a.461.461 0 0 1-.777-.375q.002-.023.006-.046.014-.107.014-.22c0-.44-.162-.843-.43-1.153a1.763 1.763 0 0 0-.95-.575l-.058.05v.001a2.4 2.4 0 0 1 .184.929c0 .304-.056.595-.159.864a9.5 9.5 0 0 0-1.848-1.474 9.65 9.65 0 0 0-5.4-1.425h.003l.001-.001h-.027a.99.99 0 0 1-.988-1.099.99.99 0 0 1 .983-.879h.011l.248.002a193 193 0 0 1 1.684.014l.008-.016.082.017h.014l.587.008.608.009h.196c.094 0 .26.005.353.009h.055l.056.001q.851.015 1.692.036l.7.017.27.007.425.012a4 4 0 0 1-.038.614 4 4 0 0 1-.268 1 4.796 4.796 0 0 0 .87-.589c.338-.284.636-.614.886-.98.052-.06.061-.064.066-.067h.001a5.956 5.956 0 0 0 .098-.146c.136-.21.229-.355.5-.34a.5.5 0 0 1 .474.5v.005q0 .027-.002.053 0 .018-.002.036a4.1 4.1 0 0 1-.363 1.505 4.2 4.2 0 0 0 2.147-2.214h.001c.3-.162.555-.394.745-.674a2.08 2.08 0 0 0 .253-1.83 3.8 3.8 0 0 0 .524-1.93M15.904 39.177h-.007l.008-.001m-.301-11.414.008.032-.02-.02zm-2.57 1.27c.25.285.482.457.482.457.006 0 .068.047.148.109.094.072.213.164.294.216h.001a4 4 0 0 0 .263.16q.105.06.214.113.35.176.732.293a4.8 4.8 0 0 0 1.84.196l.012-.001.023-.002a5 5 0 0 0 .5-.072 4.8 4.8 0 0 1-.831-.719h-.001a5 5 0 0 1-.25-.294l-.045-.06a4 4 0 0 1-.105-.143 3 3 0 0 1-.15-.229 4.623 4.623 0 0 1-.547-1.261q.045.044.094.086v.001a4.8 4.8 0 0 0 1.095.742l.012-.01.038-.028-.033.046.016.008c.284.139.545.266.955.348.354.07.767.081 1.405.098l.372.01c.167.005.33.013.488.04q.11.017.22.045a2.97 2.97 0 0 1 2.19 2.226 3 3 0 0 1 .07.642 2.96 2.96 0 0 1-2.351 2.889l-.003.027h-.001q-.19.016-.382.028-.026 0-.053.003h-.025l-.007.002q-.21.01-.42.015a12.5 12.5 0 0 1-4.73-.833 12.6 12.6 0 0 1-3.45-2.008l-.034-.028-.034-.029a12.9 12.9 0 0 1-2.73-3.133l-.094-.152a13.04 13.04 0 0 1-1.479-3.57l-.06-.256-.023-.105-.019-.087-.001-.004-.002-.009q-.024-.113-.045-.228l.005.001a6 6 0 0 1-.035-1.622 5.935 5.935 0 0 1 1.981-3.775l-.005-.018h.003q.015-.005.028-.005v-.001l.037-.032.06-.05q.316-.264.664-.481a6.7 6.7 0 0 0-.635.995 6.8 6.8 0 0 0-.774 3.118v.046q0 .262.019.517.008.115.021.227.059.55.203 1.07.129.472.324.916a6.9 6.9 0 0 0 2.912 3.234 6.8 6.8 0 0 1-.233-3.501c.03.05.215.563.307.816v.001l.05.134.066.18c.257.693.672 1.813 1.442 2.691m2.955-8.787h-.002.005v.002zm.758-1.243-.004-.005q.005 0 .009-.002zm17.87 2.865a8 8 0 0 1-.344 1.74v.001a8 8 0 0 1-1.137 2.262 7.93 7.93 0 0 0-1.495 4.03 8 8 0 0 0 .001 1.347 8 8 0 0 0 .208 1.248 6.517 6.517 0 0 1-1.73-4.07l-.002-.002h.001l.006-.01.006-.013-.014.007a6.48 6.48 0 0 1 1.446-4.437h.002a6.545 6.545 0 0 1 3.052-2.102m-4.614 3.337c.236-.39.388-.837.43-1.316a3.06 3.06 0 0 0-1.777.82 3.07 3.07 0 0 0-.958 1.97 3 3 0 0 0 .815-.207h.001a3.1 3.1 0 0 0 1.489-1.267M9.037 12.802a6 6 0 0 0-1.002.548h-.001a6.2 6.2 0 0 0-1.22 1.09v.002q-.142.165-.271.34l-.086.113a4.97 4.97 0 0 1-4.88 1.83A4.9 4.9 0 0 1 0 16.132a5.2 5.2 0 0 0 2.855-1.595l.003-.004a6 6 0 0 1 1.09-.938 6 6 0 0 1 3.313-1.031l.078-.001h.108a6 6 0 0 1 1.59.24m-5.315 7.057c.248-.95.66-1.833 1.206-2.619a8.36 8.36 0 0 0-2.702 3.506q-.135.327-.24.668a8.2 8.2 0 0 0-.357 1.978l-.001.01a4.63 4.63 0 0 1-1.253 2.849 4 4 0 0 1-.319.308q.295-.046.583-.131a4.7 4.7 0 0 0 1.66-.856 4.8 4.8 0 0 0 1.11-1.246q.147-.233.262-.479a8.315 8.315 0 0 1 .051-3.987" clip-rule="evenodd"></path><defs><linearGradient id="logo_svg__a" x1="0" x2="36.659" y1="20" y2="19.95" gradientUnits="userSpaceOnUse"><stop stop-color="#95765C"></stop><stop offset="1" stop-color="#DDBA8E"></stop></linearGradient></defs></svg>