<svg xmlns="http://www.w3.org/2000/svg" width="121" height="100" fill="none"><path fill="#181818" d="M60.603 99.668c24.634 0 44.604-3.73 44.604-8.334S85.237 83 60.603 83C35.97 83 16 86.731 16 91.334s19.97 8.334 44.603 8.334"></path><path fill="#181818" fill-rule="evenodd" d="m96.285 66.674-15.74-19.372c-.755-.912-1.859-1.464-3.022-1.464H43.682c-1.161 0-2.265.552-3.02 1.464L24.92 66.674v10.12h71.365v-10.12" clip-rule="evenodd"></path><path fill="#525252" fill-rule="evenodd" d="M38.257 20.836h44.692a2.63 2.63 0 0 1 2.632 2.631v61.41a2.63 2.63 0 0 1-2.632 2.632H38.257a2.63 2.63 0 0 1-2.632-2.631v-61.41a2.63 2.63 0 0 1 2.632-2.633" clip-rule="evenodd"></path><path fill="#282828" fill-rule="evenodd" d="M44.077 27.384h33.05a1.316 1.316 0 0 1 1.317 1.315v16.42a1.315 1.315 0 0 1-1.316 1.315h-33.05a1.315 1.315 0 0 1-1.317-1.316V28.7a1.316 1.316 0 0 1 1.316-1.315m.172 26.193h32.707a1.488 1.488 0 0 1 0 2.976H44.249a1.488 1.488 0 0 1 0-2.976m0 7.739h32.707a1.488 1.488 0 0 1 0 2.977H44.249a1.489 1.489 0 0 1 0-2.977m51.89 28.62c-.51 2.02-2.3 3.526-4.43 3.526H29.496c-2.13 0-3.92-1.507-4.43-3.526a4.8 4.8 0 0 1-.146-1.178V66.674h17.314c1.913 0 3.454 1.61 3.454 3.566v.026c0 1.955 1.56 3.533 3.472 3.533h22.885c1.912 0 3.472-1.592 3.472-3.548v-.008c0-1.955 1.541-3.57 3.454-3.57h17.314v22.085q-.001.61-.145 1.178M98.316 21.903l-4.493 1.743a.659.659 0 0 1-.867-.81l1.275-4.083c-1.704-1.937-2.704-4.298-2.704-6.847C91.527 5.33 98.184 0 106.396 0c8.21 0 14.867 5.33 14.867 11.906s-6.657 11.906-14.868 11.906c-2.979 0-5.753-.702-8.079-1.91" clip-rule="evenodd"></path><path fill="#AD8D65" d="M112.252 14.056c1.035 0 1.875-.83 1.875-1.852s-.84-1.852-1.875-1.852-1.874.83-1.874 1.852.839 1.852 1.874 1.852"></path><path fill="#AD8D65" fill-rule="evenodd" d="M102.413 13.824h-3.749l1.907-3.24zm2.343-3.24h3.279v3.24h-3.279z" clip-rule="evenodd"></path></svg>