<svg xmlns="http://www.w3.org/2000/svg" style="color: #ad8d65;" width="1em" height="1em" fill="none" viewBox="0 0 24 24"><path fill="currentColor" d="m8.818 5-.495-.495L7.828 5l.495.495zM12 1.818l.495-.495L12 .828l-.495.495zM15.182 5l-.495.495.495.495.495-.495zM19 8.818l-.495-.495-.495.495.495.495zM22.182 12l.495.495.495-.495-.495-.495zM19 15.182l-.495.495.495.495.495-.495zM15.182 19l.495.495.495-.495-.495-.495zM12 22.182l-.495.495.495.495.495-.495zM8.818 19l.495-.495-.495-.495-.495.495zM5 15.182l.495.495.495-.495-.495-.495zM1.818 12l-.495-.495L.828 12l.495.495zM5 8.818l.492-.498-.495-.488-.492.491zm0 0 .495-.495-.003-.003zm3.323-3.323a2 2 0 0 1 0 2.828l.99.99a3.4 3.4 0 0 0 0-4.808zm0 0 .99-.99zm3.182-4.172L8.323 4.505l.99.99 3.182-3.182zm4.172 3.182-3.182-3.182-.99.99 3.182 3.182zm0 .99a2 2 0 0 1 2.828 0l.99-.99a3.4 3.4 0 0 0-4.808 0zm2.828 0a2 2 0 0 1 0 2.828l.99.99a3.4 3.4 0 0 0 0-4.808zm4.172 6.01-3.182-3.182-.99.99 3.182 3.182zm-3.182 4.172 3.182-3.182-.99-.99-3.182 3.182zm-3.818 0a2 2 0 0 1 2.828 0l.99-.99a3.4 3.4 0 0 0-4.808 0zm0 2.828a2 2 0 0 1 0-2.828l-.99-.99a3.4 3.4 0 0 0 0 4.808zm-3.182 4.172 3.182-3.182-.99-.99-3.182 3.182zm-4.172-3.182 3.182 3.182.99-.99-3.182-3.182zm-3.818 0a3.4 3.4 0 0 0 4.808 0l-.99-.99a2 2 0 0 1-2.828 0zm0-4.808a3.4 3.4 0 0 0 0 4.808l.99-.99a2 2 0 0 1 0-2.828zm-3.182-2.192 3.182 3.182.99-.99-3.182-3.182zm3.182-4.172-3.182 3.182.99.99 3.182-3.182zm.987-.003-.983.996zm2.831.003a2 2 0 0 1-2.828 0l-.99.99a3.4 3.4 0 0 0 4.808 0z"></path></svg>