<svg xmlns="http://www.w3.org/2000/svg" width="1em" height="1em" fill="none" viewBox="0 0 36 37"><g clip-path="url(#filter_svg__a)"><rect width="35.5" height="35.5" x="0.25" y="0.75" stroke="#282828" stroke-width="0.5" rx="3.75"></rect><path stroke="#8E8E8E" stroke-width="1.4" d="M12.841 12.389a.5.5 0 0 0-.411.784l3.994 5.792a2 2 0 0 1 .354 1.135v3.088a.5.5 0 0 0 .295.456l1.444.65a.5.5 0 0 0 .705-.456V20.1a2 2 0 0 1 .354-1.135l3.994-5.792a.5.5 0 0 0-.411-.784z"></path></g><defs><clipPath id="filter_svg__a"><path fill="#fff" d="M36 .5H0v36h36z"></path></clipPath></defs></svg>