<svg xmlns="http://www.w3.org/2000/svg" width="46" height="46" fill="none"><mask id="avatar_svg__a" width="46" height="46" x="0" y="0" maskUnits="userSpaceOnUse" style="mask-type: alpha;"><path fill="#fff" d="M23 45.5c12.426 0 22.5-10.074 22.5-22.5S35.426.5 23 .5.5 10.574.5 23 10.574 45.5 23 45.5"></path></mask><g mask="url(#avatar_svg__a)"><path stroke="#fff" stroke-width="1.125" d="M23 46.063c12.737 0 23.063-10.326 23.063-23.063S35.737-.062 23-.062-.062 10.263-.062 23 10.263 46.063 23 46.063Z"></path><path fill="#23AE97" d="M50-1.75H-1.75V50H50z"></path><mask id="avatar_svg__b" width="234" height="234" x="-83" y="-199" maskUnits="userSpaceOnUse" style="mask-type: alpha;"><path fill="#fff" d="M33.875 34.25c64.41 0 116.625-52.215 116.625-116.625S98.285-199 33.875-199-82.75-146.785-82.75-82.375-30.535 34.25 33.875 34.25"></path></mask><g mask="url(#avatar_svg__b)"><path fill="#FFF4D7" d="M33.875 34.25c64.41 0 116.625-52.215 116.625-116.625S98.285-199 33.875-199-82.75-146.785-82.75-82.375-30.535 34.25 33.875 34.25"></path><path fill="#FCC50A" d="M26-7.75H-5.5v42H26z"></path></g></g></svg>