<svg xmlns="http://www.w3.org/2000/svg" color="#ad8d65" width="1em" height="1em" fill="none" viewBox="0 0 24 24"><path fill="currentColor" d="M15.5 15.5a1.5 1.5 0 1 0 0-3 1.5 1.5 0 0 0 0 3"></path><path fill="currentColor" fill-rule="evenodd" d="M4.51 7c.009-.258.026-.399.058-.518a2 2 0 0 1 1.414-1.414C6.205 5.008 6.506 5 7.5 5h8a1 1 0 1 0 0-2H7.362c-.795 0-1.386 0-1.897.136a4 4 0 0 0-2.829 2.829c-.082.307-.115.643-.128 1.035H2.5v8.242c0 .804 0 1.469.044 2.01.046.562.145 1.079.392 1.564a4 4 0 0 0 1.748 1.748c.485.247 1.002.346 1.564.392C6.79 21 7.454 21 8.258 21h7.483c.805 0 1.47 0 2.01-.044.563-.046 1.08-.145 1.565-.392a4 4 0 0 0 1.748-1.748c.247-.485.346-1.002.392-1.564.044-.541.044-1.206.044-2.01v-2.483c0-.805 0-1.47-.044-2.01-.046-.563-.145-1.08-.392-1.565a4 4 0 0 0-1.748-1.748c-.485-.247-1.002-.346-1.564-.392C17.21 7 16.546 7 15.742 7zm13.079 2.038C17.139 9 16.557 9 15.7 9H4.5v6.2c0 .857 0 1.439.038 1.889.035.438.1.663.18.819a2 2 0 0 0 .874.874c.156.08.38.145.819.18C6.861 19 7.443 19 8.3 19h7.4c.857 0 1.439 0 1.889-.038.438-.035.663-.1.819-.18a2 2 0 0 0 .874-.874c.08-.156.145-.38.18-.82.037-.45.038-1.031.038-1.888v-2.4c0-.857 0-1.439-.038-1.889-.035-.438-.1-.663-.18-.819a2 2 0 0 0-.874-.874c-.156-.08-.38-.145-.82-.18" clip-rule="evenodd"></path></svg>