<svg xmlns="http://www.w3.org/2000/svg" width="61" height="60" fill="none"><g clip-path="url(#goldenLogo_svg__a)"><circle cx="30.199" cy="30" r="30" fill="url(#goldenLogo_svg__b)"></circle><path fill="#0B0B0B" fill-rule="evenodd" d="M50.595 16.846c0-.967-.268-1.653-.543-2.11s-.461-.643-.55-.732c-.541-.54-1.245-.852-1.825-1.11-.206-.091-.397-.176-.56-.262-1.521-.803-2.431-1.888-2.494-1.962l-.003-.004-.003-.003c-.03-.031-.26-.264-.433-.957-.109-.433-.12-.754-.129-.999a3 3 0 0 0-.018-.288c-.037-.268-.312-.543-.77-.36-.388.193-.378.68-.37 1.105l.003.176c0 .303.183 1.372.917 2.195l.176.2c.57.645.701.794 2.208 1.63.414.229.778.405 1.086.553.357.173.639.31.84.452q.092.066.186.13c.58.395 1.136.773 1.136 2.333 0 .37-.064.725-.184 1.054a2.3 2.3 0 0 0-.745-.397 2.3 2.3 0 0 0-1.329-.02 2.3 2.3 0 0 0-.798.405v-.003a2.14 2.14 0 0 1-1.264.409c-.343 0-.668-.08-.956-.223v.003a4.5 4.5 0 0 0-1.047-.3 3.73 3.73 0 0 0-.84-1.672l-.029-.034-.03-.034a4 4 0 0 0-.704-.606 3.793 3.793 0 0 0-2.932-.552 3.791 3.791 0 0 0-.833.286 6.067 6.067 0 0 0-4.447-1.929q-.586.001-1.137.107a5.35 5.35 0 0 1 3.429 2.334q-.578.136-1.196.137c-1.322 0-3.237-1.099-3.976-1.524a4 4 0 0 0-.295-.162 9 9 0 0 0-1.136-.46 9 9 0 0 0-1.692-.389q-.248-.032-.499-.053a2.1 2.1 0 0 1-.61-.156 2.144 2.144 0 0 1-1.256-2.52l.01-.04a.587.587 0 0 0-1.112-.355 3 3 0 0 0-.142.355q-.167.497-.169 1.047a2 2 0 0 0 .01.255v.002a3.3 3.3 0 0 0 .679 1.766 4 4 0 0 1-.751.073h-.055a3.7 3.7 0 0 1-.647-.064 3.83 3.83 0 0 1-2.016-1.062 3.8 3.8 0 0 1-1.118-2.7v-.04a.654.654 0 0 0-1.309-.023q-.02.225-.02.457c0 1.374.527 2.626 1.39 3.565a5.3 5.3 0 0 0 2.727 1.584 5.2 5.2 0 0 0 1.176.131q.334 0 .657-.04h.001l.102-.014.057-.008a8 8 0 0 1 1.048-.086l.166-.002a8.36 8.36 0 0 1 4.614 1.387l.027.017.026.018a8.3 8.3 0 0 0 4.614 1.387 8.5 8.5 0 0 0 1.522-.138 8.3 8.3 0 0 0 2.139-.704 1.5 1.5 0 0 1 .587-.147l.069-.002a1.513 1.513 0 0 1 1.513 1.51 1.504 1.504 0 0 1-1.17 1.47 1.5 1.5 0 0 1-.343.039 1.51 1.51 0 0 1-1.384-.9 8.2 8.2 0 0 1-1.525.512q-.18.04-.362.074h-.001a3 3 0 0 1-.203.035 8.381 8.381 0 0 1-5.58-1.06q-.603-.355-1.248-.642h-.001a11.957 11.957 0 0 0-5.623-.987q-.463.03-.917.096a11.9 11.9 0 0 0-3 .838l.016-.018a6.1 6.1 0 0 1-2.008.334h-.02a6.15 6.15 0 0 1-3.765-1.294q.09.218.194.426l.01.019.01.018a6.2 6.2 0 0 0 3.972 3.164q.12.03.237.055.624.134 1.286.134a6.15 6.15 0 0 0 3.16-.867h.003l.01-.007h.002l.001-.002.003-.002h.001l.002-.002.038-.022q.167-.102.34-.192a7.7 7.7 0 0 1 2.816-.858h.001l.001-.001.09-.008a8 8 0 0 1 1.454.003A7.66 7.66 0 0 1 31 20.438a13.73 13.73 0 0 0-8.53 1.402 14 14 0 0 0-1.363.822q-.502.342-.972.727l-.001.001q-.437.358-.843.75h-.001c-.131.102-.416.413-.584.597l-.03.032a14 14 0 0 0-1.046 1.284l-.142.202a14.3 14.3 0 0 0-2.324 5.577q-.232 1.251-.24 2.567v.03q0 .16.002.323a14.6 14.6 0 0 0 .279 2.576q.19.954.499 1.854a.18.18 0 0 1-.173.235.18.18 0 0 1-.175-.128v-.001A5.5 5.5 0 0 0 15 38.51a6.3 6.3 0 0 1-.85-2.755v-.002a7 7 0 0 1-.016-.485 5.79 5.79 0 0 0-.801 1.409 5.86 5.86 0 0 0-.396 2.673c.039.46.132.916.278 1.358l.025.073a7.32 7.32 0 0 1-.216 5.082 5.5 5.5 0 0 0 1.061-.828 5.416 5.416 0 0 0 1.584-3.377v-.005q-.001-.02.004-.037a.183.183 0 0 1 .36.019q.022.252.059.5c.104.761.293 1.495.554 2.193a10.48 10.48 0 0 0 5.161 5.71 4.15 4.15 0 0 1-.866-2.546 4.16 4.16 0 0 1 .465-1.917 5.38 5.38 0 0 0 .036.95 5.28 5.28 0 0 0 2.625 3.905q.61.353 1.262.633h.002q.535.23 1.097.406a11.6 11.6 0 0 0 3.49.531 11.62 11.62 0 0 0 8.584-3.767l.019-.02.008-.009.034-.037.093-.104a7.5 7.5 0 0 0 1.845-4.938q0-.342-.03-.675l-.01-.094a7.3 7.3 0 0 0-.266-1.361q-.136-.464-.328-.899l-.01-.022a7.524 7.524 0 0 0-1.111-1.783 7.6 7.6 0 0 0-1.405-1.302 11 11 0 0 0-.282-.192 7.4 7.4 0 0 0-1.347-.694 7.5 7.5 0 0 0-1.622-.437l-.013-.002-.01-.001h-.006a7 7 0 0 0-.808-.077q-.029-.002-.056-.002a7.688 7.688 0 0 0-1.363.074l-.03.005-.02.003a7 7 0 0 0-.268.047l-.026-.004-.015-.003q-.083.01-.166.018l-.102.007a7.7 7.7 0 0 1-1.346-.008l-.059-.006a7.7 7.7 0 0 1-2.91-.89 7 7 0 0 1-1.496-1.096 6.3 6.3 0 0 1-.988-1.223 5.6 5.6 0 0 1-.458-.908 5.611 5.611 0 0 1-.294-.989l-.056.015.017-.011.02-.013.01-.006.005-.003a5.5 5.5 0 0 1-.104-1.074 5.56 5.56 0 0 1 .576-2.474 5.8 5.8 0 0 1 .631-1.018q.201-.264.431-.507.398-.421.873-.775a7 7 0 0 1 1.402-.814 7.5 7.5 0 0 1 1.516-.483 7.9 7.9 0 0 1 3.09-.026h.004q.027.003.054.011c.14.038.244.157.26.304l.001.038c0 .183-.14.334-.318.352a7.1 7.1 0 0 0-1.838.39c-.522.187-1.01.431-1.456.727a6 6 0 0 0-.953.768 5.8 5.8 0 0 0-1.038 1.36 5.4 5.4 0 0 0-.637 2l.017.014-.012.004-.007.003a5 5 0 0 0-.023.846l.012.164a5.2 5.2 0 0 0 .234 1.166q.042.131.09.26l.044.113a5 5 0 0 0 .139.312 8 8 0 0 1 .542-1.097l.08-.13.025-.04a7 7 0 0 1 .484-.673l-.041-.005q.045-.03.092-.058a7 7 0 0 1 .741-.782q.177-.164.366-.314.246-.2.509-.376h.002v-.001a7.5 7.5 0 0 1 1.305-.707q.093-.04.19-.077a7.4 7.4 0 0 1 2.097-.485q.127-.011.256-.018l-.002-.006h.032l.167-.001h.001q.25-.005.496-.02.085-.004.169-.01l.004-.001a10.7 10.7 0 0 0 2.806-.587q.201-.07.399-.149a11 11 0 0 1-1.34 1.472 11 11 0 0 1-2.558 1.75 9 9 0 0 1-.352.166l-.044.02a10.863 10.863 0 0 1-3.55.906v-.001l-.017.001-.164.012q-.246.018-.495.021a9 9 0 0 0 .432.177l.008.002.043.01.098.026.092.026q.316.091.61.222l.007.002a10.6 10.6 0 0 0 1.997.372h.001l.005-.005.007.003.002.003.002.001a10 10 0 0 0 1.421.031 10 10 0 0 0 1.367-.148l.037-.006a22 22 0 0 0 1.41-.353 10 10 0 0 0 1.041-.4 10.5 10.5 0 0 0 1.841-1.054q.013-.007.025-.018.636-.454 1.198-1a11 11 0 0 0 .895-.978 1.51 1.51 0 0 1 .105 2.52q-.22.159-.428.332a7.2 7.2 0 0 0-1.907 2.473 7.1 7.1 0 0 0-.592 1.941 9 9 0 0 1 1.25-.997c.28-.184.58-.337.88-.491q.21-.106.418-.217c.604-.327 1.829-.582 1.943-.603h.001a8.79 8.79 0 0 0 3.747-1.609 9 9 0 0 0 1.394-1.287q0 0 .002-.003l.002-.001.022-.026.002-.003.024-.027a1.08 1.08 0 0 0 .242-.683c0-.363-.178-.683-.451-.881a1.662 1.662 0 0 0-1.164-2.624c.294.313.472.732.472 1.194a1.73 1.73 0 0 1-.502 1.226l-.008.008-.005.005a.506.506 0 0 1-.845-.463q.015-.119.015-.242c0-.485-.177-.928-.472-1.269a1.934 1.934 0 0 0-1.042-.632l-.064.055a2.6 2.6 0 0 1 .202 1.022c0 .335-.061.655-.174.95a10.4 10.4 0 0 0-2.028-1.62 10.6 10.6 0 0 0-5.926-1.568q.002 0 .004-.002-.015.003-.03.002a1.09 1.09 0 0 1-1.084-1.21 1.09 1.09 0 0 1 1.078-.966h.148l.136.001a206 206 0 0 1 1.849.016l.01-.017.089.018h.016l.643.008.33.005h.002l.336.005h.214c.103 0 .285.007.388.01h.04l.02.001.061.001a247 247 0 0 1 2.625.058l.297.008.466.013h.001a4.5 4.5 0 0 1-.043.676 4.5 4.5 0 0 1-.294 1.1q.112-.06.22-.125.392-.23.735-.523c.37-.313.698-.676.972-1.079.057-.065.068-.07.073-.073h.001a.3.3 0 0 0 .04-.057l.068-.105c.148-.23.25-.39.548-.374.293.015.521.26.521.552v.005q0 .029-.003.058 0 .02-.002.039a4.5 4.5 0 0 1-.398 1.656 4.6 4.6 0 0 0 2.356-2.435l.001-.001a2.32 2.32 0 0 0 1.211-2.03q-.001-.38-.116-.724a4.2 4.2 0 0 0 .575-2.122M27.259 51.094h-.008.009m0 0h.001m-.33-12.555.008.035-.02-.02zm-2.821 1.397c.274.314.529.503.529.503.007-.001.075.052.163.12a4.107 4.107 0 0 0 .612.414q.115.066.235.124.385.194.804.322a5.3 5.3 0 0 0 2.057.212q.278-.024.548-.079a5.3 5.3 0 0 1-.912-.79 5.4 5.4 0 0 1-.605-.8 5.2 5.2 0 0 1-.6-1.387q.05.048.104.095v.001a5.2 5.2 0 0 0 1.201.816l.014-.01.041-.032-.036.051.017.009c.313.153.599.293 1.049.383.388.077.84.09 1.541.108l.41.01c.182.006.36.015.535.045q.12.019.24.049a3.26 3.26 0 0 1 2.403 2.448 3.2 3.2 0 0 1 .077.706 3.248 3.248 0 0 1-2.58 3.177l-.003.031q-.21.02-.42.031l-.085.005h-.008a13.674 13.674 0 0 1-5.652-.9 13.8 13.8 0 0 1-3.785-2.207l-.038-.032-.038-.031a14.1 14.1 0 0 1-2.995-3.447q-.053-.083-.103-.167-.243-.404-.46-.825a14.4 14.4 0 0 1-1.163-3.101v-.001l-.06-.258-.004-.014-.002-.01q-.015-.057-.026-.115l-.024-.11-.05-.25h.006a6.5 6.5 0 0 1-.038-1.784q.053-.467.17-.911a6.53 6.53 0 0 1 2.004-3.242l-.006-.019h.004l.03-.006.001-.001.04-.035.067-.055q.345-.29.728-.53a7 7 0 0 0-.506.752q-.03.048-.056.097a7.496 7.496 0 0 0-.984 3.677l-.001.05q0 .288.02.569.01.126.025.25.064.604.223 1.176.141.52.354 1.007a7.6 7.6 0 0 0 3.196 3.558 7.5 7.5 0 0 1-.256-3.851c.033.055.237.62.338.898l.054.148.072.195.001.002c.282.763.738 1.995 1.583 2.961m3.246-9.663-.002-.001-.003-.002h.006q-.001 0-.001.003m.829-1.37-.001-.002-.002-.002-.001-.001.005-.001.004-.001-.002.004zm19.609 3.15a8.7 8.7 0 0 1-.377 1.914v.001a8.7 8.7 0 0 1-1.248 2.488 8.73 8.73 0 0 0-1.64 4.433 9 9 0 0 0 .002 1.482 8.7 8.7 0 0 0 .227 1.373 7.155 7.155 0 0 1-.71-.9 7.14 7.14 0 0 1-1.189-3.577v-.003q.008-.013.013-.025l-.015.008a7.138 7.138 0 0 1 1.587-4.881h.001a7.185 7.185 0 0 1 3.349-2.312m-5.062 3.672c.26-.43.426-.921.471-1.448a3.37 3.37 0 0 0-1.949.903 3.38 3.38 0 0 0-1.052 2.165 3.3 3.3 0 0 0 .895-.227h.001a3.4 3.4 0 0 0 1.634-1.393M19.722 22.082a6.6 6.6 0 0 0-1.1.602 6.8 6.8 0 0 0-1.34 1.2v.001q-.156.18-.297.375-.046.063-.094.124a5.45 5.45 0 0 1-5.356 2.014 5.4 5.4 0 0 1-1.73-.654 5.7 5.7 0 0 0 3.133-1.755l.004-.004a6.68 6.68 0 0 1 3.78-2.07 7 7 0 0 1 1.051-.097h.204c.605.011 1.19.102 1.745.264m-5.833 7.763a9 9 0 0 1 1.324-2.881 9.2 9.2 0 0 0-2.966 3.856q-.148.36-.263.735a9 9 0 0 0-.392 2.176l-.001.011a5.1 5.1 0 0 1-1.375 3.134 5 5 0 0 1-.35.339 5 5 0 0 0 .64-.145 5.2 5.2 0 0 0 1.342-.602 5.23 5.23 0 0 0 .93-.74 5.3 5.3 0 0 0 1.055-1.497 9.163 9.163 0 0 1 .056-4.386" clip-rule="evenodd"></path></g><defs><linearGradient id="goldenLogo_svg__b" x1="0.199" x2="59.377" y1="30" y2="29.913" gradientUnits="userSpaceOnUse"><stop stop-color="#95765C"></stop><stop offset="1" stop-color="#DDBA8E"></stop></linearGradient><clipPath id="goldenLogo_svg__a"><path fill="#fff" d="M.2 0h60v60H.2z"></path></clipPath></defs></svg>