<svg xmlns="http://www.w3.org/2000/svg" width="1em" height="1em" fill="none" viewBox="0 0 148 148"><path stroke="#2A231C" d="M.5 10.207 10.207.5h127.586l9.707 9.707v127.586l-9.707 9.707H10.207L.5 137.793z"></path><g filter="url(#CFXs_svg__a)"><path fill="#181818" d="M16.919 8H131.08L140 16.919V131.08L131.081 140H16.919L8 131.081V16.919z"></path><path stroke="#514233" d="M8.5 17.126 17.126 8.5h113.748l8.626 8.626v113.748l-8.626 8.626H17.126L8.5 130.874z"></path></g><g clip-path="url(#CFXs_svg__b)"><path fill="url(#CFXs_svg__c)" fill-rule="evenodd" d="M123.862 37.713c0-2.373-.655-4.057-1.329-5.18s-1.129-1.578-1.347-1.795c-1.324-1.325-3.048-2.092-4.467-2.725h-.001c-.505-.225-.972-.433-1.368-.643-3.726-1.972-5.954-4.634-6.108-4.817l-.008-.01-.003-.002-.005-.006c-.074-.076-.635-.647-1.06-2.349-.265-1.062-.293-1.849-.314-2.45a7 7 0 0 0-.046-.708c-.089-.658-.763-1.331-1.885-.882-.948.473-.924 1.667-.904 2.71q.005.224.006.432c0 .746.449 3.368 2.245 5.388l.431.489.001.001h.001c1.393 1.585 1.715 1.951 5.404 4 1.015.565 1.905.996 2.658 1.36.874.424 1.565.759 2.056 1.11q.228.162.457.317c1.421.97 2.78 1.9 2.78 5.728 0 .907-.157 1.778-.449 2.587a5.6 5.6 0 0 0-1.825-.975 5.6 5.6 0 0 0-1.711-.265c-.534 0-1.052.075-1.542.216-.721.2-1.381.543-1.953.994l-.002-.004v-.002a5.23 5.23 0 0 1-3.094 1.003 5.2 5.2 0 0 1-2.338-.546l.001.003v.001l-.001.002-.001.001a11 11 0 0 0-2.564-.736 9.2 9.2 0 0 0-1.203-2.952 9 9 0 0 0-.925-1.237l-.072-.083a9.6 9.6 0 0 0-1.724-1.486 9.267 9.267 0 0 0-5.18-1.571 9.3 9.3 0 0 0-2 .215h-.002q-.414.09-.808.218a9 9 0 0 0-1.23.484q-.375-.403-.779-.776a14.83 14.83 0 0 0-10.109-3.958c-.952 0-1.881.09-2.782.26a13.1 13.1 0 0 1 8.394 5.73c-.94.22-1.92.336-2.927.336-3.238 0-7.924-2.697-9.735-3.74-.382-.22-.636-.365-.722-.397a22 22 0 0 0-2.782-1.13 22.3 22.3 0 0 0-4.141-.954 25 25 0 0 0-1.222-.132 5 5 0 0 1-1.055-.22 5.225 5.225 0 0 1-1.394-.68 5.27 5.27 0 0 1-2.288-4.349 5.3 5.3 0 0 1 .193-1.416q.034-.152.034-.315a1.42 1.42 0 0 0-.763-1.266 1.433 1.433 0 0 0-1.993.71q-.108.225-.198.458a8.179 8.179 0 0 0-.563 2.983q0 .098.002.195.005.218.022.431v.005a8.1 8.1 0 0 0 1.661 4.335 9.6 9.6 0 0 1-3.556.022 9.36 9.36 0 0 1-4.936-2.608 9.35 9.35 0 0 1-2.737-6.625v-.101a1.601 1.601 0 0 0-3.204-.056q-.05.554-.049 1.122c0 3.372 1.289 6.446 3.401 8.751a13 13 0 0 0 2.91 2.375 12.8 12.8 0 0 0 4.487 1.655q1.055.18 2.16.18.818 0 1.61-.1h.002l.249-.033.055-.008.084-.012a20 20 0 0 1 2.972-.216 20.4 20.4 0 0 1 3.334.272 20.272 20.272 0 0 1 7.963 3.132l.065.043.065.044a20.3 20.3 0 0 0 9.835 3.35 19.7 19.7 0 0 0 3.229-.025q.617-.048 1.223-.14.37-.053.734-.12a20.2 20.2 0 0 0 5.238-1.727 3.65 3.65 0 0 1 1.437-.361q.084-.005.168-.005a3.7 3.7 0 0 1 3.287 1.998q.024.044.044.088.034.067.063.137a3.694 3.694 0 0 1-1.257 4.506 3.6 3.6 0 0 1-1.297.583 3.6 3.6 0 0 1-.84.096 3.697 3.697 0 0 1-3.388-2.207q-1.028.462-2.112.809-.796.255-1.621.447h-.002a19 19 0 0 1-.885.181h-.002q-.145.029-.29.052a19.066 19.066 0 0 1-1.9.231 20.6 20.6 0 0 1-4.873-.213 20.2 20.2 0 0 1-7.094-2.586 30 30 0 0 0-3.057-1.574h-.003a29.197 29.197 0 0 0-11.827-2.485 29 29 0 0 0-4.184.299 29 29 0 0 0-7.343 2.056.3.3 0 0 1 .038-.045 14.9 14.9 0 0 1-4.317.806q-.296.014-.6.014h-.049a15.03 15.03 0 0 1-9.217-3.177q.219.535.476 1.046l.023.046.012.024.012.022a15.2 15.2 0 0 0 7.599 7.054 15 15 0 0 0 2.126.711h.002q.288.075.58.135a15 15 0 0 0 3.147.33 15.04 15.04 0 0 0 7.74-2.13h.003l.006-.004.007-.004.014-.008q.006-.007.013-.01.004 0 .007-.004.047-.03.094-.056.409-.249.83-.471a18.7 18.7 0 0 1 6.897-2.106l.005-.002.22-.02a19.4 19.4 0 0 1 3.558.009 18.7 18.7 0 0 1 9.22 3.484 33.5 33.5 0 0 0-9.007-.211q-1.462.162-2.887.449a33.2 33.2 0 0 0-7.691 2.552 33.6 33.6 0 0 0-4.274 2.423 10 10 0 0 0-.364.247q-1.228.837-2.378 1.784h-.002v.001l-.002.002q-1.068.878-2.063 1.838 0 .001-.002.002v.002h-.003c-.319.248-1.015 1.011-1.427 1.463l-.072.08a35 35 0 0 0-2.562 3.152q-.175.245-.348.494a35 35 0 0 0-4.072 7.805 35 35 0 0 0-1.619 5.885v.002a35.7 35.7 0 0 0-.588 6.3v.07q0 .398.007.796a36 36 0 0 0 .682 6.321v.003a35 35 0 0 0 1.222 4.548q.02.06.02.132a.443.443 0 0 1-.445.445.45.45 0 0 1-.427-.314v-.003a13.5 13.5 0 0 0-.875-1.91 15.6 15.6 0 0 1-2.08-6.764v-.002q-.042-.597-.04-1.19c-.132.175-.264.355-.387.534a14.418 14.418 0 0 0-2.541 9.485c.094 1.13.32 2.247.68 3.334l.06.18a18 18 0 0 1-.53 12.472c.928-.554 1.8-1.232 2.6-2.031a13.327 13.327 0 0 0 3.823-7.802q.034-.243.054-.487v-.013a.4.4 0 0 1 .009-.09v-.002a.448.448 0 0 1 .882.047q.053.62.144 1.23a25 25 0 0 0 1.358 5.381 25.7 25.7 0 0 0 12.635 14.013 10.2 10.2 0 0 1-2.122-6.247 10.2 10.2 0 0 1 1.14-4.706q-.018.328-.017.658 0 .85.105 1.672a12.97 12.97 0 0 0 6.428 9.586 28 28 0 0 0 3.089 1.554l.004.002q1.309.563 2.685.995h.002A28.5 28.5 0 0 0 73.24 124c8.196 0 15.582-3.457 20.779-8.993q.121-.125.236-.254.076-.081.148-.162.111-.118.215-.24l.004-.005.002-.003.006-.006.002-.002a18.4 18.4 0 0 0 3.872-7.269c.422-1.546.645-3.172.645-4.851a18 18 0 0 0-.097-1.886 18 18 0 0 0-.653-3.343 18 18 0 0 0-.804-2.204l-.006-.017-.018-.037a18.488 18.488 0 0 0-2.72-4.375 18.6 18.6 0 0 0-3.438-3.197l-.337-.234a18.15 18.15 0 0 0-3.652-1.942 18.4 18.4 0 0 0-3.972-1.073q-.015 0-.032-.004l-.038-.005a18 18 0 0 0-2.117-.19 15 15 0 0 0-.637-.014c-.916 0-1.819.067-2.699.195l-.036.006-.029.004-.009.001-.05.007q-.329.05-.655.115l-.1-.016q-.204.024-.407.043-.124.01-.25.018-.749.06-1.515.06-.901 0-1.78-.08l-.143-.014a18.7 18.7 0 0 1-6.29-1.753 15 15 0 0 1-.836-.431 17.2 17.2 0 0 1-3.091-2.164 14 14 0 0 1-.57-.528 15.5 15.5 0 0 1-2.42-3.001 14 14 0 0 1-.874-1.646 11 11 0 0 1-.247-.582q-.133-.327-.247-.662a14 14 0 0 1-.473-1.764l-.069.018-.068.018.028-.019.024-.016.076-.049a13.6 13.6 0 0 1-.256-2.635c0-1.767.336-3.466.96-5.044q.203-.523.452-1.029.184-.38.393-.752.511-.91 1.151-1.746.492-.648 1.055-1.244A16 16 0 0 1 63.79 57.1a17.3 17.3 0 0 1 3.432-1.998 18.3 18.3 0 0 1 3.711-1.185 19.3 19.3 0 0 1 3.944-.404c1.244 0 2.456.117 3.624.341h.007q.067.009.132.027a.87.87 0 0 1 .64.84.87.87 0 0 1-.78.864 17.4 17.4 0 0 0-4.498.959 16.4 16.4 0 0 0-3.565 1.782h-.002a15 15 0 0 0-.838.593q-.407.306-.788.64-.366.312-.707.653a14.3 14.3 0 0 0-2.539 3.336 13.3 13.3 0 0 0-.844 1.859c-.36.974-.602 1.998-.716 3.053l.04.034q-.015.003-.028.01l-.017.005a12.7 12.7 0 0 0-.026 2.48q.04.49.118.97a13 13 0 0 0 .454 1.89v.003q.101.323.22.638h.002q.052.137.105.275h.003a12 12 0 0 0 .337.766 19 19 0 0 1 .478-1.1 19 19 0 0 1 1.046-1.91l.06-.097h.003a17 17 0 0 1 1.183-1.654q-.05-.008-.101-.011.112-.074.226-.144a18 18 0 0 1 1.428-1.554q.191-.188.387-.363.435-.404.895-.772a18 18 0 0 1 1.246-.923h.005q.002 0 .002-.002a18.4 18.4 0 0 1 3.192-1.736v-.002q.23-.095.465-.186a18.337 18.337 0 0 1 5.134-1.19q.313-.03.629-.045l-.004-.007-.003-.009h.079q.206 0 .408-.002h.005q.612-.01 1.214-.05.206-.008.412-.026h.01a26 26 0 0 0 4.27-.672 26 26 0 0 0 2.6-.77q.495-.171.977-.363a27 27 0 0 1-3.28 3.612 26.7 26.7 0 0 1-4.05 3.064 11 11 0 0 1-.51.308q-.831.495-1.704.922-.425.213-.86.409l-.028.013-.04.017-.016.007-.026.01q-.508.23-1.03.436a26.6 26.6 0 0 1-5.826 1.573q-.157.025-.316.045-.199.03-.398.054-.556.071-1.12.115v.001l-.002-.001-.04.003a12 12 0 0 1-.4.028q-.603.044-1.212.054a23 23 0 0 0 1.057.433l.019.004.104.025q.122.031.242.065.115.03.225.063.77.226 1.496.546l.003.002h.003l.002.001.004.001h.003a25.8 25.8 0 0 0 4.89.914h.002l.011-.013q.014.005.027.018a25 25 0 0 0 3.48.076 25 25 0 0 0 3.073-.321q.137-.02.273-.043l.09-.016c.683-.123 2.982-.713 3.451-.866q.815-.264 1.605-.584.479-.189.946-.397a25.7 25.7 0 0 0 4.507-2.586q.03-.02.061-.045a25.5 25.5 0 0 0 2.932-2.454 26 26 0 0 0 2.191-2.402 3.707 3.707 0 0 1 .258 6.187q-.539.387-1.048.815a17.66 17.66 0 0 0-4.67 6.068 17.5 17.5 0 0 0-1.448 4.766 21.7 21.7 0 0 1 3.06-2.447c.686-.454 1.42-.83 2.156-1.206.342-.175.685-.35 1.023-.534 1.477-.801 4.477-1.428 4.757-1.48h.002a21.504 21.504 0 0 0 9.173-3.949 22 22 0 0 0 3.413-3.158q0-.003.004-.006l.005-.005a1 1 0 0 0 .055-.063l.005-.007.029-.033.03-.034a2.66 2.66 0 0 0 .592-1.677c0-.889-.435-1.677-1.104-2.162a4.076 4.076 0 0 0-2.849-6.44 4.27 4.27 0 0 1 1.154 2.93c0 .767-.2 1.488-.555 2.112a4.3 4.3 0 0 1-.685.909l-.009.009-.011.011a1.235 1.235 0 0 1-2.087-1.012q.007-.064.018-.124a5 5 0 0 0 .035-.595c0-1.19-.433-2.276-1.153-3.114a4.6 4.6 0 0 0-.894-.81 4.7 4.7 0 0 0-1.657-.74 3 3 0 0 0-.157.134v.002q.298.719.418 1.509.076.489.076.999a6.5 6.5 0 0 1-.427 2.332 25 25 0 0 0-1.513-1.437 27 27 0 0 0-.626-.525q-.174-.143-.352-.285a26 26 0 0 0-2.086-1.488l-.388-.245a26 26 0 0 0-5.278-2.487q-.405-.136-.817-.259a25 25 0 0 0-3.689-.828 26 26 0 0 0-4.723-.272l.009-.004q-.038.003-.074.002a2.67 2.67 0 0 1-.014-5.34h.032l.664.004q1.301.006 2.595.02.97.008 1.93.018l.007-.013.008-.014.008-.016q.108.025.22.045h.038l1.576.02 1.635.025h.525a33 33 0 0 1 1.02.026l.078.001.148.002q2.287.04 4.548.097.942.021 1.877.045l.728.02 1.142.031.002.003a11 11 0 0 1-.105 1.657 11 11 0 0 1-.721 2.7q.276-.148.541-.305a13.222 13.222 0 0 0 4.178-3.933c.139-.16.165-.173.178-.18l.003-.002c.011-.006.018-.017.098-.137l.167-.258c.362-.565.612-.956 1.341-.919a1.35 1.35 0 0 1 1.275 1.354v.014q0 .07-.006.141.001.05-.005.097a11.2 11.2 0 0 1-.976 4.065 11.28 11.28 0 0 0 5.769-5.978l.002-.002a5.7 5.7 0 0 0 2.001-1.819 5.63 5.63 0 0 0 .965-3.165c0-.62-.099-1.217-.285-1.776a10.27 10.27 0 0 0 1.407-5.208m-57.131 84.065h-.02l.007-.001h.002q.007 0 .013-.002-.002.001-.002.003m-.81-30.82q.008.046.021.088l-.051-.051a.2.2 0 0 1 .03-.036m-6.906 3.431a9.3 9.3 0 0 0 1.295 1.235c.017-.003.184.126.399.292.253.196.572.444.79.585h.003c.177.117.352.227.536.333q.085.052.171.099.283.161.575.305.94.475 1.967.79a12.9 12.9 0 0 0 5.037.52q.683-.06 1.34-.192a13 13 0 0 1-.886-.665c-.479-.395-.93-.821-1.345-1.277h-.002a13 13 0 0 1-.792-.953v-.001a10 10 0 0 1-.281-.388 9 9 0 0 1-.301-.45 12.578 12.578 0 0 1-.846-1.553 12.5 12.5 0 0 1-.73-2.02q.124.118.256.233v.002c.438.398.907.766 1.398 1.1a13 13 0 0 0 1.543.903l.033-.025q.051-.037.101-.079a2 2 0 0 1-.087.126l.042.02c.764.377 1.464.72 2.566.941.95.19 2.06.22 3.773.264h.006q.466.013.996.028c.447.013.885.036 1.311.108q.298.047.589.12h.002a8 8 0 0 1 5.442 4.634 7.9 7.9 0 0 1 .628 3.11 7.93 7.93 0 0 1-1.645 4.849 7.95 7.95 0 0 1-4.672 2.95l-.007.074h-.002q-.51.046-1.026.076l-.08.005-.035.002-.026.002-.068.002-.01.001-.01.002a33.345 33.345 0 0 1-13.838-2.207 33.8 33.8 0 0 1-7.276-3.909 33 33 0 0 1-1.989-1.513l-.093-.077-.093-.078a34.6 34.6 0 0 1-4.129-4.072 34.4 34.4 0 0 1-3.205-4.387q-.128-.206-.252-.41a36 36 0 0 1-1.127-2.025v-.003a35.3 35.3 0 0 1-2.846-7.61v-.002a28 28 0 0 1-.162-.692q-.034-.14-.063-.283a9 9 0 0 1-.058-.269 26 26 0 0 1-.121-.615q.006.002.013.002-.199-1.24-.2-2.534a16.2 16.2 0 0 1 .523-4.082 16.04 16.04 0 0 1 4.905-7.956l-.013-.047.009-.002a1 1 0 0 1 .074-.014l.002-.002q.048-.045.099-.085.081-.07.162-.137a16 16 0 0 1 1.782-1.298 18 18 0 0 0-1.706 2.687 18.44 18.44 0 0 0-2.079 8.419q-.003.062-.002.123 0 .707.052 1.397v.002q.022.307.058.61c.103.988.287 1.954.545 2.89q.347 1.275.87 2.472a18.6 18.6 0 0 0 7.823 8.732 18.5 18.5 0 0 1-.965-5.917c0-1.21.116-2.391.339-3.536.079.136.58 1.522.826 2.205l.132.363.18.485c.69 1.872 1.806 4.896 3.875 7.267m7.947-23.72-.011-.007.013.002s-.004.003-.002.005m2.03-3.36-.004-.007-.006-.007.006-.002h.005l.012-.003-.003.005zm48.01 7.735a21.3 21.3 0 0 1-.923 4.697v.004a21.5 21.5 0 0 1-3.055 6.106 21.45 21.45 0 0 0-3.709 8.612 20 20 0 0 0-.307 2.27q-.075.885-.075 1.787a21.8 21.8 0 0 0 .636 5.219 16 16 0 0 1-.703-.808h-.002a18 18 0 0 1-1.033-1.401 17.5 17.5 0 0 1-2.912-8.78v-.002l-.001-.002.001-.002h.001q.017-.03.031-.061l-.008.006-.028.012a20 20 0 0 1-.022-.916c0-4.19 1.463-8.04 3.908-11.065h.002q.064-.088.142-.176a17.6 17.6 0 0 1 3.823-3.441 17.4 17.4 0 0 1 4.234-2.059m-12.397 9.01a8.24 8.24 0 0 0 1.154-3.555 8.25 8.25 0 0 0-4.77 2.216 8.3 8.3 0 0 0-2.575 5.314 8.2 8.2 0 0 0 2.191-.557h.002a8.3 8.3 0 0 0 3.998-3.419M48.279 50.564c-.947.409-1.847.905-2.692 1.48h-.002q-.721.491-1.385 1.053a16.6 16.6 0 0 0-1.895 1.892v.002a15 15 0 0 0-.727.92 13.331 13.331 0 0 1-11.189 5.484 13 13 0 0 1-2.153-.237A13.2 13.2 0 0 1 24 59.554a13.9 13.9 0 0 0 7.68-4.317 16.4 16.4 0 0 1 2.925-2.532 16.1 16.1 0 0 1 6.329-2.55 16.3 16.3 0 0 1 2.575-.236q.105-.002.209-.002.143 0 .29.002c1.48.027 2.913.249 4.271.646M34 69.621a22.3 22.3 0 0 1 3.242-7.072 22.5 22.5 0 0 0-4.605 4.69 22.2 22.2 0 0 0-2.655 4.775 22.306 22.306 0 0 0-1.605 7.146q-.004.012-.003.026a12.55 12.55 0 0 1-3.365 7.691h-.002a12 12 0 0 1-.856.833q.792-.127 1.567-.354c1.145-.33 2.25-.822 3.285-1.477q.607-.377 1.176-.836.571-.451 1.1-.98a13 13 0 0 0 2.584-3.676 22.555 22.555 0 0 1-.584-5.103c0-1.955.25-3.852.721-5.661z" clip-rule="evenodd"></path></g><defs><linearGradient id="CFXs_svg__c" x1="24" x2="122.494" y1="70" y2="69.866" gradientUnits="userSpaceOnUse"><stop stop-color="#95765C"></stop><stop offset="1" stop-color="#DDBA8E"></stop></linearGradient><clipPath id="CFXs_svg__b"><path fill="#fff" d="M20 16h108v108H20z"></path></clipPath><filter id="CFXs_svg__a" width="140" height="140" x="4" y="8" color-interpolation-filters="sRGB" filterUnits="userSpaceOnUse"><feFlood flood-opacity="0" result="BackgroundImageFix"></feFlood><feColorMatrix in="SourceAlpha" result="hardAlpha" values="0 0 0 0 0 0 0 0 0 0 0 0 0 0 0 0 0 0 127 0"></feColorMatrix><feOffset dy="4"></feOffset><feGaussianBlur stdDeviation="2"></feGaussianBlur><feComposite in2="hardAlpha" operator="out"></feComposite><feColorMatrix values="0 0 0 0 0 0 0 0 0 0 0 0 0 0 0 0 0 0 0.25 0"></feColorMatrix><feBlend in2="BackgroundImageFix" result="effect1_dropShadow_44_5390"></feBlend><feBlend in="SourceGraphic" in2="effect1_dropShadow_44_5390" result="shape"></feBlend><feColorMatrix in="SourceAlpha" result="hardAlpha" values="0 0 0 0 0 0 0 0 0 0 0 0 0 0 0 0 0 0 127 0"></feColorMatrix><feOffset></feOffset><feGaussianBlur stdDeviation="3"></feGaussianBlur><feComposite in2="hardAlpha" k2="-1" k3="1" operator="arithmetic"></feComposite><feColorMatrix values="0 0 0 0 0.317647 0 0 0 0 0.258824 0 0 0 0 0.2 0 0 0 1 0"></feColorMatrix><feBlend in2="shape" result="effect2_innerShadow_44_5390"></feBlend></filter></defs></svg>