<svg xmlns="http://www.w3.org/2000/svg" width="1em" height="1em" fill="none" viewBox="0 0 16 16"><path fill="#26A17B" d="M8 16A8 8 0 1 0 8 0a8 8 0 0 0 0 16"></path><path fill="#fff" d="M9.025 8.738v-.002c-.058.005-.36.023-1.035.023-.539 0-.918-.016-1.051-.023v.002c-2.074-.091-3.622-.452-3.622-.884s1.548-.793 3.622-.886v1.41c.135.01.523.033 1.06.033.644 0 .966-.027 1.026-.032V6.97c2.07.093 3.614.454 3.614.885 0 .432-1.544.792-3.614.884m0-1.915V5.56h2.888V3.637H4.051V5.56H6.94v1.261c-2.347.108-4.112.573-4.112 1.13s1.765 1.021 4.112 1.13v4.043h2.086V9.08c2.343-.107 4.104-.572 4.104-1.128s-1.76-1.02-4.104-1.13"></path></svg>